<?xml version="1.0" encoding="UTF-8"?>
<svg width="24" height="24" viewBox="0 0 24 24" fill="none" xmlns="http://www.w3.org/2000/svg">
    <path d="M15 22V18C15 17.4696 14.7893 16.9609 14.4142 16.5858C14.0391 16.2107 13.5304 16 13 16H11C10.4696 16 9.96086 16.2107 9.58579 16.5858C9.21071 16.9609 9 17.4696 9 18V22" stroke="#1DE9B6" stroke-width="2" stroke-linecap="round" stroke-linejoin="round"/>
    <path d="M4 22V13C4 12.4696 4.21071 11.9609 4.58579 11.5858C4.96086 11.2107 5.46957 11 6 11H8C8.53043 11 9.03914 11.2107 9.41421 11.5858C9.78929 11.9609 10 12.4696 10 13V22" stroke="#1DE9B6" stroke-width="2" stroke-linecap="round" stroke-linejoin="round"/>
    <path d="M20 22V15C20 14.4696 19.7893 13.9609 19.4142 13.5858C19.0391 13.2107 18.5304 13 18 13H16C15.4696 13 14.9609 13.2107 14.5858 13.5858C14.2107 13.9609 14 14.4696 14 15V22" stroke="#1DE9B6" stroke-width="2" stroke-linecap="round" stroke-linejoin="round"/>
    <path d="M2 22H22" stroke="#1DE9B6" stroke-width="2" stroke-linecap="round" stroke-linejoin="round"/>
</svg>
