<?xml version="1.0" encoding="UTF-8"?>
<svg width="120" height="32" viewBox="0 0 120 32" fill="none" xmlns="http://www.w3.org/2000/svg">
    <path d="M20 26.2433L20 17.7577C20.0018 16.7861 19.7451 15.831 19.2556 14.9887C18.7662 14.1463 18.0612 13.4463 17.2117 12.9591L9.78432 8.7363C8.93772 8.25266 7.97747 7.99805 7 7.99805C6.02253 7.99805 5.06228 8.25266 4.21568 8.7363L-3.21134 12.9751C-4.06121 13.4623 -4.76621 14.1623 -5.25566 15.0047C-5.74512 15.847 -6.00184 16.802 -6.00001 17.7737L-6.00001 26.2433C-6.00348 27.2153 -5.74746 28.171 -5.25783 29.0136C-4.76821 29.8562 -4.06239 30.5559 -3.21134 31.0419L4.21568 35.2887C5.06364 35.7685 6.02326 36.0208 7 36.0208C7.97674 36.0208 8.93636 35.7685 9.78432 35.2887L17.2117 31.0179C18.0623 30.5319 18.7682 29.8322 19.2578 28.9896C19.7474 28.147 20.0035 27.1913 20 26.2193L20 26.2433Z" fill="#1DE9B6"/>
    <text x="32" y="24" fill="#FFFFFF" font-family="Arial" font-size="20" font-weight="bold">Galaxy AI</text>
</svg>
